<svg width="32" height="28" viewBox="0 0 32 28" fill="none" xmlns="http://www.w3.org/2000/svg">
<path d="M1.25066e-06 0L0 28H4.87008L4.87008 6.73931L9.30563 10.7242L13.7412 14.7091L13.7412 7.96983L4.87008 0H1.25066e-06Z" fill="#D64045"/>
<path d="M13.7412 0V7.96983L13.7412 14.7091V28H18.6113V14.8244L27.1299 6.90468V12.3421H32V0H27.1299V0.0570482L18.6113 7.97674V0H13.7412Z" fill="#EFD28D"/>
<path d="M28.7344 18.916C29.0923 19.6732 29.0375 20.1957 28.8351 20.6286C28.5989 21.1339 28.0789 21.6829 27.2103 22.2604C25.6811 23.2772 23.5649 24.0785 21.5037 24.859L21.5034 24.8591L21.5021 24.8596L21.5011 24.86C21.1867 24.9791 20.8735 25.0976 20.5639 25.2165L20.5652 25.2198H20.4949V28L31.8584 28V25.2198H27.7079C28.0925 25.0095 28.4612 24.7898 28.8068 24.56C29.8701 23.853 30.8727 22.9528 31.4185 21.7852C31.9982 20.5451 31.985 19.1709 31.3127 17.7488C29.8736 14.7044 26.7471 14.4532 24.6021 14.7187C23.4848 14.8569 22.4607 15.1455 21.7276 15.3922C21.3577 15.5168 21.0535 15.6335 20.8388 15.7205C20.7312 15.7641 20.6456 15.8004 20.5848 15.8268C20.5544 15.8399 20.5301 15.8507 20.5124 15.8586C20.5036 15.8625 20.4963 15.8658 20.4908 15.8683L20.4837 15.8715L20.4811 15.8727L20.4801 15.8732C20.4796 15.8734 20.4792 15.8736 21.0824 17.1321C21.6855 18.3906 21.6848 18.3909 21.6848 18.3909L21.6919 18.3878C21.7004 18.384 21.715 18.3775 21.7355 18.3686C21.7765 18.3508 21.8407 18.3235 21.9253 18.2893C22.0949 18.2206 22.3444 18.1246 22.6517 18.0212C23.2732 17.812 24.0981 17.5833 24.9585 17.4769C26.769 17.2528 28.1131 17.6018 28.7344 18.916Z" fill="#D64045"/>
</svg>
